<svg width="20" height="20" viewBox="0 0 20 20" fill="none" xmlns="http://www.w3.org/2000/svg">
<path d="M4.16699 8.33366H5.83366C7.50033 8.33366 8.33366 7.50033 8.33366 5.83366V4.16699C8.33366 2.50033 7.50033 1.66699 5.83366 1.66699H4.16699C2.50033 1.66699 1.66699 2.50033 1.66699 4.16699V5.83366C1.66699 7.50033 2.50033 8.33366 4.16699 8.33366Z" stroke="white" stroke-width="1.3" stroke-miterlimit="10" stroke-linecap="round" stroke-linejoin="round"/>
<path d="M14.167 8.33366H15.8337C17.5003 8.33366 18.3337 7.50033 18.3337 5.83366V4.16699C18.3337 2.50033 17.5003 1.66699 15.8337 1.66699H14.167C12.5003 1.66699 11.667 2.50033 11.667 4.16699V5.83366C11.667 7.50033 12.5003 8.33366 14.167 8.33366Z" stroke="white" stroke-width="1.3" stroke-miterlimit="10" stroke-linecap="round" stroke-linejoin="round"/>
<path d="M14.167 18.3337H15.8337C17.5003 18.3337 18.3337 17.5003 18.3337 15.8337V14.167C18.3337 12.5003 17.5003 11.667 15.8337 11.667H14.167C12.5003 11.667 11.667 12.5003 11.667 14.167V15.8337C11.667 17.5003 12.5003 18.3337 14.167 18.3337Z" stroke="white" stroke-width="1.3" stroke-miterlimit="10" stroke-linecap="round" stroke-linejoin="round"/>
<path d="M4.16699 18.3337H5.83366C7.50033 18.3337 8.33366 17.5003 8.33366 15.8337V14.167C8.33366 12.5003 7.50033 11.667 5.83366 11.667H4.16699C2.50033 11.667 1.66699 12.5003 1.66699 14.167V15.8337C1.66699 17.5003 2.50033 18.3337 4.16699 18.3337Z" stroke="white" stroke-width="1.3" stroke-miterlimit="10" stroke-linecap="round" stroke-linejoin="round"/>
</svg>
