<svg width="200" height="157" viewBox="0 0 200 157" fill="none" xmlns="http://www.w3.org/2000/svg">
<path d="M184.375 9.37488H76.25C75.6614 9.37525 75.0849 9.54183 74.5868 9.85545C74.0888 10.1691 73.6894 10.617 73.4347 11.1476C73.18 11.6782 73.0803 12.27 73.1472 12.8548C73.214 13.4395 73.4446 13.9935 73.8125 14.453L87.5625 31.6405C89.0213 33.4723 90.8751 34.9507 92.9855 35.9653C95.0959 36.9799 97.4084 37.5045 99.75 37.4999H196.875C197.704 37.4999 198.499 37.1706 199.085 36.5846C199.671 35.9985 200 35.2037 200 34.3749V24.9999C199.995 20.8574 198.347 16.886 195.418 13.9568C192.489 11.0276 188.517 9.37984 184.375 9.37488Z" fill="#FFB125"/>
<path d="M200 31.2499H99.75C98.3468 31.2496 96.9615 30.9337 95.6968 30.3257C94.4322 29.7177 93.3204 28.8331 92.4438 27.7374L76.8125 8.19991C74.7689 5.63719 72.1731 3.56882 69.2188 2.14901C66.2645 0.729203 63.0278 -0.00542174 59.75 -9.32899e-05H15.625C11.481 -9.32899e-05 7.50671 1.64611 4.57646 4.57636C1.6462 7.50662 0 11.4809 0 15.6249L0 140.625C0 144.769 1.6462 148.743 4.57646 151.673C7.50671 154.604 11.481 156.25 15.625 156.25H184.375C188.519 156.25 192.493 154.604 195.424 151.673C198.354 148.743 200 144.769 200 140.625V31.2499Z" fill="#FCD354"/>
</svg>
