<svg width="20" height="20" viewBox="0 0 20 20" fill="none" xmlns="http://www.w3.org/2000/svg">
<path d="M8.74179 1.85879L4.58346 3.41712C3.62513 3.77545 2.8418 4.90878 2.8418 5.93378V12.1254C2.8418 13.1088 3.49181 14.4004 4.28347 14.9921L7.8668 17.6671C9.0418 18.5505 10.9751 18.5505 12.1501 17.6671L15.7335 14.9921C16.5251 14.4004 17.1751 13.1088 17.1751 12.1254V5.93378C17.1751 4.90878 16.3918 3.77545 15.4335 3.41712L11.2751 1.85879C10.5668 1.60046 9.43345 1.60046 8.74179 1.85879Z" stroke="white" stroke-width="1.3" stroke-linecap="round" stroke-linejoin="round"/>
<path d="M9.99909 9.10034C9.96576 9.10034 9.92409 9.10034 9.89076 9.10034C9.10742 9.07534 8.48242 8.42533 8.48242 7.63367C8.48242 6.82533 9.14076 6.16699 9.9491 6.16699C10.7574 6.16699 11.4158 6.82533 11.4158 7.63367C11.4074 8.43367 10.7824 9.07534 9.99909 9.10034Z" stroke="white" stroke-width="1.3" stroke-linecap="round" stroke-linejoin="round"/>
<path d="M8.34121 11.4338C7.54121 11.9671 7.54121 12.8421 8.34121 13.3754C9.24954 13.9838 10.7412 13.9838 11.6495 13.3754C12.4495 12.8421 12.4495 11.9671 11.6495 11.4338C10.7495 10.8255 9.25788 10.8255 8.34121 11.4338Z" stroke="white" stroke-width="1.3" stroke-linecap="round" stroke-linejoin="round"/>
</svg>
