<svg width="100" height="123" viewBox="0 0 100 123" fill="none" xmlns="http://www.w3.org/2000/svg">
<path d="M88.8889 33.6666C87.4155 33.6666 86.0024 34.252 84.9605 35.2938C83.9186 36.3357 83.3333 37.7488 83.3333 39.2222V101.394C83.174 104.204 81.9109 106.836 79.8194 108.719C77.7279 110.601 74.9772 111.581 72.1667 111.444H27.8333C25.0228 111.581 22.2721 110.601 20.1806 108.719C18.089 106.836 16.826 104.204 16.6667 101.394V39.2222C16.6667 37.7488 16.0813 36.3357 15.0395 35.2938C13.9976 34.252 12.5845 33.6666 11.1111 33.6666C9.63768 33.6666 8.2246 34.252 7.18273 35.2938C6.14086 36.3357 5.55555 37.7488 5.55555 39.2222V101.394C5.71413 107.151 8.14767 112.611 12.3232 116.577C16.4988 120.543 22.0759 122.693 27.8333 122.556H72.1667C77.924 122.693 83.5012 120.543 87.6768 116.577C91.8523 112.611 94.2859 107.151 94.4444 101.394V39.2222C94.4444 37.7488 93.8591 36.3357 92.8173 35.2938C91.7754 34.252 90.3623 33.6666 88.8889 33.6666ZM94.4444 17H72.2222V5.88887C72.2222 4.41544 71.6369 3.00237 70.595 1.9605C69.5532 0.918629 68.1401 0.333313 66.6667 0.333313H33.3333C31.8599 0.333313 30.4468 0.918629 29.405 1.9605C28.3631 3.00237 27.7778 4.41544 27.7778 5.88887V17H5.55555C4.08212 17 2.66905 17.5853 1.62718 18.6272C0.585308 19.669 -7.62939e-06 21.0821 -7.62939e-06 22.5555C-7.62939e-06 24.029 0.585308 25.442 1.62718 26.4839C2.66905 27.5258 4.08212 28.1111 5.55555 28.1111H94.4444C95.9179 28.1111 97.3309 27.5258 98.3728 26.4839C99.4147 25.442 100 24.029 100 22.5555C100 21.0821 99.4147 19.669 98.3728 18.6272C97.3309 17.5853 95.9179 17 94.4444 17ZM38.8889 17V11.4444H61.1111V17H38.8889Z" fill="white"/>
<path d="M44.4444 89.2222V50.3333C44.4444 48.8599 43.8591 47.4468 42.8173 46.405C41.7754 45.3631 40.3623 44.7778 38.8889 44.7778C37.4155 44.7778 36.0024 45.3631 34.9605 46.405C33.9186 47.4468 33.3333 48.8599 33.3333 50.3333V89.2222C33.3333 90.6956 33.9186 92.1087 34.9605 93.1506C36.0024 94.1925 37.4155 94.7778 38.8889 94.7778C40.3623 94.7778 41.7754 94.1925 42.8173 93.1506C43.8591 92.1087 44.4444 90.6956 44.4444 89.2222ZM66.6667 89.2222V50.3333C66.6667 48.8599 66.0813 47.4468 65.0395 46.405C63.9976 45.3631 62.5845 44.7778 61.1111 44.7778C59.6377 44.7778 58.2246 45.3631 57.1827 46.405C56.1409 47.4468 55.5555 48.8599 55.5555 50.3333V89.2222C55.5555 90.6956 56.1409 92.1087 57.1827 93.1506C58.2246 94.1925 59.6377 94.7778 61.1111 94.7778C62.5845 94.7778 63.9976 94.1925 65.0395 93.1506C66.0813 92.1087 66.6667 90.6956 66.6667 89.2222Z" fill="white"/>
</svg>
