<svg width="561" height="390" viewBox="0 0 561 390" fill="none" xmlns="http://www.w3.org/2000/svg">
<g clip-path="url(#clip0_350_2)">
<mask id="mask0_350_2" style="mask-type:luminance" maskUnits="userSpaceOnUse" x="0" y="0" width="561" height="390">
<path d="M561 0H0V390H561V0Z" fill="white"/>
</mask>
<g mask="url(#mask0_350_2)">
<path d="M327.304 221.584L241.23 248.168C239.495 248.698 237.656 247.728 237.112 245.995L205.658 144.381C205.399 143.553 205.49 142.661 205.878 141.897L216.976 120.643C217.377 119.867 218.077 119.285 218.918 119.026L288.857 97.4228C290.592 96.8924 292.431 97.8626 292.975 99.5961L329.466 217.471C329.997 219.204 329.026 221.041 327.291 221.584H327.304Z" fill="white"/>
<path d="M240.257 249.617C238.237 249.617 236.476 248.324 235.88 246.396L204.427 144.782C204.064 143.618 204.181 142.389 204.737 141.315L215.835 120.061C216.392 118.988 217.389 118.16 218.541 117.81L288.48 96.207C288.92 96.0776 289.374 96 289.84 96C291.86 96 293.621 97.2936 294.217 99.2211L330.708 217.096C331.07 218.26 330.954 219.502 330.384 220.588C329.814 221.675 328.856 222.464 327.691 222.826L241.617 249.41C241.177 249.552 240.723 249.617 240.257 249.617ZM289.84 98.5743C289.646 98.5743 289.438 98.6002 289.244 98.6649L219.305 120.268C218.8 120.424 218.373 120.786 218.127 121.251L207.029 142.493C206.783 142.958 206.732 143.502 206.887 144.006L238.341 245.62C238.664 246.655 239.791 247.263 240.827 246.939L326.901 220.343C327.406 220.187 327.82 219.838 328.079 219.372C328.325 218.907 328.377 218.363 328.221 217.859L291.73 99.9843C291.471 99.1435 290.707 98.5872 289.827 98.5872L289.84 98.5743Z" fill="#DFA465"/>
<path d="M217.713 119.738C217.713 119.738 217.648 119.815 217.609 119.841L205.696 142.402C205.631 142.596 205.592 142.803 205.566 143.01L220.173 138.495C221.869 137.978 222.815 136.18 222.297 134.485L217.726 119.738H217.713Z" fill="#FFFCF3"/>
<path d="M204.013 144.847L204.259 142.855C204.298 142.57 204.363 142.286 204.44 142.014L204.531 141.807L216.69 118.923C216.69 118.923 216.794 118.819 216.846 118.768L218.348 117.448L223.502 134.11C223.851 135.261 223.748 136.477 223.178 137.538C222.621 138.599 221.676 139.388 220.523 139.737L204 144.847H204.013ZM217.377 123.05L207.937 140.927L219.772 137.266C220.264 137.111 220.666 136.788 220.899 136.335C221.132 135.882 221.184 135.365 221.028 134.873L217.364 123.05H217.377Z" fill="#DFA465"/>
<mask id="mask1_350_2" style="mask-type:luminance" maskUnits="userSpaceOnUse" x="230" y="150" width="70" height="55">
<path d="M289.859 151L230 167.315L240.12 204.443L299.978 188.127L289.859 151Z" fill="white"/>
</mask>
<g mask="url(#mask1_350_2)">
<path d="M253.219 187.024C252.424 184.567 250.457 182.982 248.817 183.491C247.177 183.999 246.497 186.41 247.285 188.869C248.079 191.326 250.047 192.91 251.687 192.402C253.327 191.893 254.007 189.483 253.219 187.024Z" fill="#DFA465"/>
<path d="M287.953 176.721C287.159 174.264 285.191 172.68 283.551 173.188C281.911 173.697 281.231 176.107 282.02 178.566C282.814 181.023 284.781 182.608 286.421 182.099C288.061 181.591 288.741 179.18 287.953 176.721Z" fill="#DFA465"/>
<path d="M264.723 194.854C273.005 189.123 281.12 190.993 281.498 191.08C281.911 191.183 282.159 191.589 282.053 191.999C281.945 192.403 281.528 192.652 281.116 192.555C281.023 192.531 271.577 190.385 263.092 198.089C262.778 198.371 262.289 198.357 262.001 198.054C261.712 197.746 261.73 197.267 262.045 196.985C262.932 196.178 263.828 195.472 264.717 194.855L264.723 194.854Z" fill="#DFA465"/>
<path d="M241.848 165.014C242.098 164.952 242.366 164.953 242.633 165.021C243.458 165.239 243.94 166.073 243.713 166.885C241.446 174.971 234.675 177.185 234.388 177.276C233.576 177.534 232.71 177.094 232.449 176.298C232.189 175.502 232.636 174.655 233.442 174.399C233.665 174.326 238.919 172.543 240.73 166.093C240.886 165.547 241.325 165.151 241.844 165.022L241.848 165.014Z" fill="#DFA465"/>
<path d="M276.587 154.648C277.036 154.427 277.583 154.425 278.046 154.686C283.947 158.014 288.964 155.638 289.173 155.538C289.936 155.164 290.863 155.465 291.24 156.21C291.618 156.956 291.317 157.861 290.562 158.239C290.287 158.37 283.891 161.483 276.499 157.315C275.764 156.9 275.512 155.973 275.936 155.249C276.092 154.979 276.323 154.775 276.587 154.648Z" fill="#DFA465"/>
</g>
<path d="M421.564 348.371H94V350.958H421.564V348.371Z" fill="#DFA465"/>
<path d="M561.011 348.371H542.52V350.958H561.011V348.371Z" fill="#DFA465"/>
<path d="M115.105 308.605L117.915 349.665H162.629L159.612 305.565L115.105 308.605Z" fill="#DFA465"/>
<path d="M164.016 350.958H116.713L113.734 307.402L160.831 304.181L164.029 350.958H164.016ZM119.134 348.371H161.245L158.409 306.937L116.48 309.808L119.121 348.371H119.134Z" fill="#DFA465"/>
<path d="M78.0988 349.665L129.753 224.067L88.4711 211.713L31.4297 349.665H78.0988Z" fill="#DFA465"/>
<path d="M78.9661 350.958H29.5L87.7198 210.135L131.501 223.227L78.9791 350.958H78.9661ZM33.3589 348.371H77.2309L128.005 224.895L89.209 213.292L33.3589 348.384V348.371Z" fill="#DFA465"/>
<path d="M183.492 349.665H232.13C231.948 347.699 231.78 345.707 231.638 343.637C230.032 319.808 232.026 302.021 237.555 290.314C243.149 278.62 251.541 272.397 262.729 271.634C273.671 270.845 282.606 275.89 289.482 286.782C296.423 297.675 300.631 314.996 302.302 338.825C302.561 342.589 302.716 346.198 302.794 349.665H352.066C352.078 345.047 351.936 340.325 351.599 335.474C350.563 319.821 347.948 305.398 343.791 292.332C339.647 279.266 333.82 268.09 326.322 258.892C318.76 249.681 309.54 242.696 298.65 237.922C287.695 233.214 275.069 231.286 260.683 232.256C246.037 233.252 233.606 236.862 223.311 243.058C213.081 249.267 204.794 257.404 198.604 267.559C192.363 277.701 188.012 289.525 185.448 303.056C182.935 316.6 182.171 331.218 183.259 346.936C183.324 347.854 183.402 348.747 183.466 349.652L183.492 349.665Z" fill="white"/>
<path d="M353.359 350.959H301.523L301.497 349.691C301.42 346.172 301.251 342.55 301.005 338.915C299.361 315.346 295.113 298.037 288.38 287.481C281.802 277.067 273.19 272.19 262.805 272.928C252.018 273.652 244.132 279.525 238.706 290.87C233.281 302.358 231.325 320.093 232.905 343.559C233.048 345.603 233.216 347.595 233.397 349.549L233.527 350.959H182.274L182.118 349.018C182.067 348.359 182.015 347.699 181.963 347.026C180.875 331.438 181.613 316.574 184.164 302.823C186.767 289.111 191.26 277.016 197.502 266.874C203.705 256.693 212.161 248.31 222.636 241.946C233.061 235.659 245.829 231.959 260.591 230.95C275.029 229.967 288.004 231.907 299.166 236.719C310.186 241.545 319.665 248.724 327.318 258.051C334.881 267.326 340.837 278.723 345.02 291.918C349.189 305.074 351.831 319.692 352.88 335.371C353.204 340.028 353.359 344.827 353.346 349.652V350.946L353.359 350.959ZM304.048 348.372H350.769C350.756 344.051 350.601 339.743 350.303 335.565C349.28 320.093 346.664 305.682 342.559 292.72C338.467 279.823 332.666 268.724 325.324 259.707C317.93 250.703 308.775 243.77 298.144 239.113C287.37 234.469 274.796 232.606 260.785 233.55C246.45 234.533 234.071 238.104 223.996 244.171C213.883 250.315 205.712 258.413 199.729 268.232C193.656 278.102 189.279 289.9 186.728 303.302C184.229 316.833 183.491 331.49 184.566 346.858C184.605 347.363 184.643 347.867 184.682 348.372H230.704C230.574 346.858 230.445 345.306 230.328 343.727C228.723 319.808 230.756 301.659 236.376 289.758C242.164 277.662 250.995 271.13 262.637 270.341C263.401 270.289 264.165 270.263 264.916 270.263C275.314 270.263 283.938 275.593 290.581 286.084C297.638 297.157 301.899 314.375 303.595 338.734C303.815 341.981 303.971 345.215 304.061 348.372H304.048Z" fill="#DFA465"/>
<path d="M533.132 349.665L529.843 329.29L506.625 330.856L503.102 279.305L458.596 282.345L462.118 333.844L416.006 337.026L473.306 197.807L431.959 185.44L364.066 349.665H533.132Z" fill="#DFA465"/>
<path d="M534.659 350.958H362.137L431.221 183.862L475.067 196.966L418.013 335.59L460.758 332.628L457.223 281.129L504.319 277.908L507.842 329.471L530.943 327.906L534.672 350.958H534.659ZM366.009 348.371H531.616L528.755 330.649L505.433 332.227L501.911 280.676L459.981 283.548L463.516 335.047L414.024 338.462L471.571 198.635L432.71 187.018L365.996 348.371H366.009Z" fill="#DFA465"/>
<path d="M281.686 244.623C282.127 250.134 270.874 255.541 256.539 256.693C242.204 257.844 230.226 254.313 229.786 248.802C229.346 243.291 240.599 237.884 254.933 236.732C269.268 235.581 281.246 239.113 281.686 244.623Z" fill="#E1E5E6"/>
<path d="M306.922 247.715C306.12 249.94 301.277 250.238 296.097 248.388C290.917 246.538 287.369 243.226 288.172 241.001C288.975 238.776 293.818 238.479 298.998 240.329C304.177 242.178 307.725 245.49 306.922 247.715Z" fill="#E1E5E6"/>
<path d="M15.5391 348.371H0V350.958H15.5391V348.371Z" fill="#DFA465"/>
<path d="M80.584 369.47H65.3945V372.057H80.584V369.47Z" fill="#DFA465"/>
<path d="M129.753 369.47H102.301V372.057H129.753V369.47Z" fill="#DFA465"/>
<path d="M433.8 369.47H421.562V372.057H433.8V369.47Z" fill="#DFA465"/>
<path d="M501.784 369.47H448.602V372.057H501.784V369.47Z" fill="#DFA465"/>
<path d="M56.3282 387.413H42.9258V390H56.3282V387.413Z" fill="#DFA465"/>
<path d="M521.856 387.413H508.453V390H521.856V387.413Z" fill="#DFA465"/>
<path d="M122.124 26.0923H74.6392C73.3702 26.0923 72.1271 25.5619 71.2595 24.6434C70.3789 23.712 69.9257 22.496 69.9905 21.2153C70.0293 20.5427 70.1329 19.857 70.3013 19.1844C71.2854 15.4199 74.3803 12.5481 78.1873 11.8625C80.2592 11.4873 82.3699 11.759 84.2217 12.6257C85.8015 5.31677 92.2761 0 99.9162 0C107.556 0 113.85 5.12273 115.546 12.367C116.439 12.1988 117.333 12.1729 118.252 12.2635C122.901 12.7551 126.566 16.6359 126.773 21.3059C126.825 22.6254 126.371 23.7767 125.517 24.6564C124.636 25.5748 123.406 26.0923 122.124 26.0923ZM80.0132 14.0228C79.547 14.0228 79.0679 14.0616 78.5888 14.1522C75.714 14.6696 73.2796 16.9205 72.5415 19.7665C72.412 20.2839 72.3213 20.8143 72.2954 21.3318C72.2566 21.9656 72.4897 22.5736 72.9299 23.0393C73.3832 23.505 73.9788 23.7767 74.6392 23.7767H122.124C122.772 23.7767 123.393 23.505 123.846 23.0523C124.261 22.6254 124.481 22.0691 124.455 21.487C124.3 17.9425 121.464 14.9413 118.006 14.5661C116.983 14.4627 115.973 14.5661 115.002 14.8895L113.707 15.3164L113.5 13.9711C112.464 7.21839 106.753 2.32851 99.9291 2.32851C93.1049 2.32851 87.0058 7.60647 86.2547 14.592L86.0475 16.5454L84.4418 15.4199C83.1339 14.5144 81.6059 14.0228 80.0261 14.0228H80.0132Z" fill="#DFA465"/>
<path d="M446.53 25.6655H407.398C405.844 25.6655 404.316 25.0316 403.228 23.945C402.179 22.8972 401.609 21.5259 401.609 20.0771C401.609 19.3914 401.674 18.6929 401.804 18.0202C402.581 13.7901 405.792 10.3361 409.962 9.21067C411.826 8.70616 413.756 8.68029 415.608 9.14599C418.197 3.82922 423.558 0.439941 429.528 0.439941C436.443 0.439941 442.568 5.12284 444.432 11.6944C448.822 11.992 452.306 15.6529 452.306 20.1029C452.28 23.1947 449.69 25.6655 446.517 25.6655H446.53ZM412.927 11.1123C412.137 11.1123 411.347 11.2158 410.57 11.4357C407.255 12.3283 404.704 15.0837 404.096 18.4342C403.992 18.9775 403.94 19.5337 403.94 20.0771C403.94 20.905 404.277 21.6941 404.886 22.3021C405.546 22.9618 406.465 23.3499 407.411 23.3499H446.543C448.408 23.3499 450.001 21.8752 450.014 20.1417C450.014 16.7266 447.268 13.9841 443.889 13.9841C443.785 13.9971 443.694 14.01 443.604 14.0229L442.633 14.0617L442.425 13.1045C441.117 7.10207 435.705 2.74258 429.554 2.74258C424.167 2.74258 419.376 5.96369 417.343 10.9571L416.928 11.979L415.892 11.6168C414.921 11.2805 413.937 11.1123 412.94 11.1123H412.927Z" fill="#DFA465"/>
</g>
</g>
<defs>
<clipPath id="clip0_350_2">
<rect width="561" height="390" fill="white"/>
</clipPath>
</defs>
</svg>
